<svg width="222" height="176" viewBox="0 0 222 176" fill="none" xmlns="http://www.w3.org/2000/svg">
<g id="togetherIcon" filter="url(#filter0_d_1_4741)">
<path d="M44.4953 113.923C44.4953 113.371 44.943 112.923 45.4953 112.923H48.0572C48.6095 112.923 49.0572 113.371 49.0572 113.923V130.171C49.0572 130.723 48.6095 131.171 48.0572 131.171H45.4953C44.943 131.171 44.4953 130.723 44.4953 130.171V113.923Z" fill="#F1E8D9"/>
<path d="M49.0571 109.362C49.0571 108.81 49.5048 108.362 50.0571 108.362H52.619C53.1713 108.362 53.619 108.81 53.619 109.362V125.61C53.619 126.162 53.1713 126.61 52.619 126.61H50.0571C49.5048 126.61 49.0571 126.162 49.0571 125.61V109.362Z" fill="#F1E8D9"/>
<path d="M21.6857 115.115C21.6857 101.308 32.8786 90.1151 46.6857 90.1151H51.4285C65.2357 90.1151 76.4286 101.308 76.4286 115.115V142.668C76.4286 156.475 65.2357 167.668 51.4286 167.668H46.6857C32.8786 167.668 21.6857 156.475 21.6857 142.667V115.115Z" fill="#F1E8D9"/>
<path d="M8 91.0874C8 110.831 17.6307 121.251 22.446 123.994C36.8921 123.994 62.6704 129.88 73.0071 123.994C87.4532 115.767 92.3952 101.519 95.9627 91.0874C97.8554 85.5527 102.346 77.5693 108.362 74.1479C108.362 67.305 99.64 66.2192 95.9627 67.305C91.1177 68.7357 85.6172 80.9908 83.2714 80.9908C77.493 80.9908 76.4286 63.6656 76.4286 58.1812L8 74.6343V91.0874Z" fill="#F1E8D9"/>
<path d="M8 46.7767C8 42.9975 11.0637 39.9339 14.8429 39.9339C18.6221 39.9339 21.6857 42.9975 21.6857 46.7767V74.1482C21.6857 77.9274 18.6221 80.991 14.8429 80.991C11.0637 80.991 8 77.9274 8 74.1482V46.7767Z" fill="#F1E8D9"/>
<path d="M26.2477 23.9644C26.2477 20.1852 29.3113 17.1216 33.0905 17.1216C36.8697 17.1216 39.9334 20.1852 39.9334 23.9644V74.1454C39.9334 77.9246 36.8697 80.9883 33.0905 80.9883C29.3113 80.9883 26.2477 77.9246 26.2477 74.1454V23.9644Z" fill="#F1E8D9"/>
<path d="M44.4953 14.8429C44.4953 11.0637 47.559 8 51.3382 8C55.1174 8 58.181 11.0637 58.181 14.8429V74.1476C58.181 77.9268 55.1174 80.9905 51.3382 80.9905C47.559 80.9905 44.4953 77.9268 44.4953 74.1476V14.8429Z" fill="#F1E8D9"/>
<path d="M62.7428 23.9644C62.7428 20.1852 65.8065 17.1216 69.5857 17.1216C73.3649 17.1216 76.4285 20.1852 76.4285 23.9644V60.4597C76.4285 64.2389 73.3649 67.3025 69.5857 67.3025C65.8065 67.3025 62.7428 64.2389 62.7428 60.4597V23.9644Z" fill="#F1E8D9"/>
<path d="M176.79 113.923C176.79 113.371 176.343 112.923 175.79 112.923H173.228C172.676 112.923 172.228 113.371 172.228 113.923V130.171C172.228 130.723 172.676 131.171 173.228 131.171H175.79C176.343 131.171 176.79 130.723 176.79 130.171V113.923Z" fill="#F1E8D9"/>
<path d="M172.229 109.362C172.229 108.81 171.781 108.362 171.229 108.362H168.667C168.114 108.362 167.667 108.81 167.667 109.362V125.61C167.667 126.162 168.114 126.61 168.667 126.61H171.229C171.781 126.61 172.229 126.162 172.229 125.61V109.362Z" fill="#F1E8D9"/>
<path d="M199.6 115.115C199.6 101.308 188.407 90.1151 174.6 90.1151H169.857C156.05 90.1151 144.857 101.308 144.857 115.115V142.668C144.857 156.475 156.05 167.668 169.857 167.668H174.6C188.407 167.668 199.6 156.475 199.6 142.667V115.115Z" fill="#F1E8D9"/>
<path d="M213.286 91.0874C213.286 110.831 203.655 121.251 198.84 123.994C184.394 123.994 158.615 129.88 148.279 123.994C133.832 115.767 128.89 101.519 125.323 91.0874C123.43 85.5527 118.94 77.5693 112.924 74.1479C112.924 67.305 121.646 66.2192 125.323 67.305C130.168 68.7357 135.668 80.9908 138.014 80.9908C143.793 80.9908 144.857 63.6656 144.857 58.1812L213.286 74.6343V91.0874Z" fill="#F1E8D9"/>
<path d="M213.286 46.7767C213.286 42.9975 210.222 39.9339 206.443 39.9339C202.664 39.9339 199.6 42.9975 199.6 46.7767V74.1482C199.6 77.9274 202.664 80.991 206.443 80.991C210.222 80.991 213.286 77.9274 213.286 74.1482V46.7767Z" fill="#F1E8D9"/>
<path d="M195.038 23.9644C195.038 20.1852 191.974 17.1216 188.195 17.1216C184.416 17.1216 181.352 20.1852 181.352 23.9644V74.1454C181.352 77.9246 184.416 80.9883 188.195 80.9883C191.974 80.9883 195.038 77.9246 195.038 74.1454V23.9644Z" fill="#F1E8D9"/>
<path d="M176.79 14.8429C176.79 11.0637 173.727 8 169.948 8C166.168 8 163.105 11.0637 163.105 14.8429V74.1476C163.105 77.9268 166.168 80.9905 169.948 80.9905C173.727 80.9905 176.79 77.9268 176.79 74.1476V14.8429Z" fill="#F1E8D9"/>
<path d="M158.543 23.9644C158.543 20.1852 155.479 17.1216 151.7 17.1216C147.921 17.1216 144.857 20.1852 144.857 23.9644V60.4597C144.857 64.2389 147.921 67.3025 151.7 67.3025C155.479 67.3025 158.543 64.2389 158.543 60.4597V23.9644Z" fill="#F1E8D9"/>
</g>
<defs>
<filter id="filter0_d_1_4741" x="0" y="0" width="221.286" height="175.667" filterUnits="userSpaceOnUse" color-interpolation-filters="sRGB">
<feFlood flood-opacity="0" result="BackgroundImageFix"/>
<feColorMatrix in="SourceAlpha" type="matrix" values="0 0 0 0 0 0 0 0 0 0 0 0 0 0 0 0 0 0 127 0" result="hardAlpha"/>
<feOffset/>
<feGaussianBlur stdDeviation="4"/>
<feComposite in2="hardAlpha" operator="out"/>
<feColorMatrix type="matrix" values="0 0 0 0 0 0 0 0 0 0 0 0 0 0 0 0 0 0 0.25 0"/>
<feBlend mode="normal" in2="BackgroundImageFix" result="effect1_dropShadow_1_4741"/>
<feBlend mode="normal" in="SourceGraphic" in2="effect1_dropShadow_1_4741" result="shape"/>
</filter>
</defs>
</svg>
