<svg width="40" height="40" viewBox="0 0 40 40" fill="none" xmlns="http://www.w3.org/2000/svg">
<circle cx="20" cy="20" r="20" fill="#FA9A84"/>
<path d="M21.2593 10.8334L21.0741 24.5026H18.926L18.7408 10.8334H21.2593ZM20 30C19.5433 30 19.1513 29.836 18.8241 29.5079C18.497 29.1798 18.3334 28.7866 18.3334 28.3285C18.3334 27.8704 18.497 27.4773 18.8241 27.1492C19.1513 26.8211 19.5433 26.657 20 26.657C20.4568 26.657 20.8488 26.8211 21.176 27.1492C21.5031 27.4773 21.6667 27.8704 21.6667 28.3285C21.6667 28.6319 21.5895 28.9105 21.4352 29.1643C21.2871 29.4181 21.0865 29.6224 20.8334 29.7772C20.5865 29.9258 20.3087 30 20 30Z" fill="white"/>
</svg>
