<svg width="2" height="7" viewBox="0 0 2 7" fill="none" xmlns="http://www.w3.org/2000/svg">
<path d="M1.45201 0.287842L1.3958 4.43656H0.743821L0.687616 0.287842H1.45201ZM1.06981 6.10507C0.931172 6.10507 0.812204 6.05528 0.712908 5.95569C0.613613 5.85611 0.563965 5.7368 0.563965 5.59775C0.563965 5.45871 0.613613 5.3394 0.712908 5.23981C0.812204 5.14023 0.931172 5.09044 1.06981 5.09044C1.20845 5.09044 1.32742 5.14023 1.42671 5.23981C1.52601 5.3394 1.57566 5.45871 1.57566 5.59775C1.57566 5.68982 1.55224 5.77437 1.5054 5.85141C1.46044 5.92845 1.39955 5.99045 1.32273 6.03743C1.24779 6.08252 1.16349 6.10507 1.06981 6.10507Z" fill="#FA9A84"/>
</svg>
