<svg width="2" height="7" viewBox="0 0 2 7" fill="none" xmlns="http://www.w3.org/2000/svg">
<path d="M1.45222 0.287842L1.39601 4.43656H0.744035L0.68783 0.287842H1.45222ZM1.07002 6.10507C0.931385 6.10507 0.812418 6.05528 0.713122 5.95569C0.613826 5.85611 0.564178 5.7368 0.564178 5.59775C0.564178 5.45871 0.613826 5.3394 0.713122 5.23981C0.812418 5.14023 0.931385 5.09044 1.07002 5.09044C1.20866 5.09044 1.32763 5.14023 1.42693 5.23981C1.52622 5.3394 1.57587 5.45871 1.57587 5.59775C1.57587 5.68982 1.55245 5.77437 1.50561 5.85141C1.46065 5.92845 1.39976 5.99045 1.32295 6.03743C1.24801 6.08252 1.1637 6.10507 1.07002 6.10507Z" fill="#F1E8D9"/>
</svg>
