<svg width="9" height="19" viewBox="0 0 9 19" fill="none" xmlns="http://www.w3.org/2000/svg">
<path d="M8.028 14.544V14.0898L7.57586 14.0463C6.77024 13.9688 6.10033 13.8094 5.64751 13.5728C5.20347 13.3409 5.052 13.0877 5.052 12.816C5.052 12.5007 5.17387 12.1978 5.41428 11.8474C5.5993 11.5777 5.82577 11.318 6.08565 11.0199C6.1772 10.9149 6.2729 10.8051 6.37239 10.6885C7.11177 9.8218 7.932 8.71301 7.932 7.02401C7.932 5.51904 7.32463 4.16851 6.13111 3.17908C4.94775 2.19808 3.224 1.59983 1.02253 1.50052L0.5 1.47694V2.00001L0.5 5.32801L0.5 5.77687L0.946259 5.82511C2.10183 5.95004 2.74691 6.17827 3.09274 6.41603C3.39975 6.6271 3.476 6.84611 3.476 7.08801C3.476 7.38276 3.35799 7.67187 3.11628 8.01742C2.9387 8.27129 2.72524 8.51567 2.4802 8.79618C2.37722 8.91407 2.26867 9.03835 2.15485 9.17239C1.41115 10.0483 0.596 11.1794 0.596 12.912C0.596 14.4889 1.39776 15.8345 2.65402 16.7865C3.9054 17.7348 5.61743 18.3047 7.51031 18.3717L8.028 18.39V17.872V14.544Z" fill="white" stroke="#FA9A84"/>
</svg>
