<svg width="2" height="7" viewBox="0 0 2 7" fill="none" xmlns="http://www.w3.org/2000/svg">
<path d="M1.45219 0.287842L1.39598 4.43656H0.744004L0.687799 0.287842H1.45219ZM1.06999 6.10507C0.931355 6.10507 0.812387 6.05528 0.713091 5.95569C0.613796 5.85611 0.564148 5.7368 0.564148 5.59775C0.564148 5.45871 0.613796 5.3394 0.713091 5.23981C0.812387 5.14023 0.931355 5.09044 1.06999 5.09044C1.20863 5.09044 1.3276 5.14023 1.4269 5.23981C1.52619 5.3394 1.57584 5.45871 1.57584 5.59775C1.57584 5.68982 1.55242 5.77437 1.50558 5.85141C1.46062 5.92845 1.39973 5.99045 1.32292 6.03743C1.24798 6.08252 1.16367 6.10507 1.06999 6.10507Z" fill="#F1E8D9"/>
</svg>
