<svg width="2" height="7" viewBox="0 0 2 7" fill="none" xmlns="http://www.w3.org/2000/svg">
<path d="M1.45221 0.287842L1.39601 4.43656H0.744027L0.687822 0.287842H1.45221ZM1.07002 6.10507C0.931378 6.10507 0.81241 6.05528 0.713114 5.95569C0.613819 5.85611 0.564171 5.7368 0.564171 5.59775C0.564171 5.45871 0.613819 5.3394 0.713114 5.23981C0.81241 5.14023 0.931378 5.09044 1.07002 5.09044C1.20866 5.09044 1.32762 5.14023 1.42692 5.23981C1.52621 5.3394 1.57586 5.45871 1.57586 5.59775C1.57586 5.68982 1.55244 5.77437 1.50561 5.85141C1.46064 5.92845 1.39975 5.99045 1.32294 6.03743C1.248 6.08252 1.16369 6.10507 1.07002 6.10507Z" fill="#F1E8D9"/>
</svg>
