<svg width="40" height="40" viewBox="0 0 40 40" fill="none" xmlns="http://www.w3.org/2000/svg">
<circle cx="20" cy="20" r="20" fill="#FA9A84"/>
<path d="M21.2592 10.8334L21.074 24.5026H18.9258L18.7407 10.8334H21.2592ZM19.9999 30C19.5431 30 19.1512 29.836 18.824 29.5079C18.4968 29.1798 18.3333 28.7866 18.3333 28.3285C18.3333 27.8704 18.4968 27.4773 18.824 27.1492C19.1512 26.8211 19.5431 26.657 19.9999 26.657C20.4567 26.657 20.8487 26.8211 21.1758 27.1492C21.503 27.4773 21.6666 27.8704 21.6666 28.3285C21.6666 28.6319 21.5894 28.9105 21.4351 29.1643C21.287 29.4181 21.0863 29.6224 20.8333 29.7772C20.5863 29.9258 20.3086 30 19.9999 30Z" fill="white"/>
</svg>
